<?xml version="1.0" encoding="utf-8"?>
<svg xmlns="http://www.w3.org/2000/svg"
     width="24dp"
     height="24dp"
     viewBox="0 0 1024 1024">
    <path fill="#BFBFBF"
          d="M536.5,512l195.2,-195.2c9.8,-9.8 9.8,-25.6 0,-35.4L521.9,71.7a25,25 0,0 0,-27.3 -5.4,25 25,0 0,0 -15.5,23.1v359l-145.1,-145.1c-9.8,-9.8 -25.6,-9.8 -35.4,0 -9.8,9.8 -9.8,25.6 0,35.4l170.1,170.1 -176.4,176.4c-9.8,9.8 -9.8,25.6 0,35.4a25,25 0,0 0,17.7 7.3,25 25,0 0,0 17.7,-7.3l151.3,-151.3v365.3a25,25 0,0 0,42.8 17.7l209.7,-209.7c9.8,-9.8 9.8,-25.6 0,-35.4l-195.2,-195.2zM529.2,149.8l149.3,149.3 -149.3,149.3L529.2,149.8zM529.2,874.2L529.2,575.6l149.3,149.3 -149.3,149.3z"
    />
</svg>
