<?xml version="1.0" encoding="utf-8"?>
<svg xmlns="http://www.w3.org/2000/svg"
     width="24dp"
     height="24dp"
     viewBox="0 0 1024 1024">
    <path fill="#BFBFBF"
    d="M514.6,533a21,21 0,0 1,-21 -21L493.6,240.9c0,-11.6 6.5,-21.9 17,-26.9 10.4,-5 22.6,-3.6 31.6,3.7l157.1,126.3c7.1,5.7 11.1,14.2 11.1,23.3s-4.1,17.6 -11.1,23.3l-171.5,137.9c-3.8,3.1 -8.5,4.6 -13.1,4.6zM535.6,266.2v201.9L661.2,367.2 535.6,266.2z  M334.6,677.8c-6.2,0 -12.2,-2.7 -16.4,-7.8 -7.3,-9 -5.8,-22.3 3.2,-29.5L481.1,512l-159.7,-128.4c-9,-7.3 -10.5,-20.5 -3.2,-29.5 7.3,-9 20.5,-10.4 29.5,-3.2l180.1,144.8a21,21 0,0 1,0 32.7l-180.1,144.8c-3.9,3.1 -8.5,4.6 -13.1,4.6z M523.5,813c-4.4,0 -8.8,-1 -12.9,-3 -10.5,-5 -17,-15.3 -17,-26.9L493.6,512c0,-8.1 4.6,-15.4 11.9,-18.9 7.3,-3.5 15.9,-2.5 22.2,2.6l171.5,137.9c7.1,5.7 11.1,14.2 11.1,23.3 0,9.1 -4.1,17.6 -11.1,23.3l-157.1,126.3c-5.4,4.4 -12,6.6 -18.6,6.6zM535.6,555.8v201.9L661.2,656.8 535.6,555.8z"/>
</svg>
