<?xml version="1.0" encoding="utf-8"?>
<svg xmlns="http://www.w3.org/2000/svg"
     width="24dp"
     height="24dp"
     viewBox="0 0 1024 1024">
    <path fill="#BFBFBF"
     d = "M835.5,322.2c14.4,0 27.2,5.9 38.3,17.7 11.1,11.8 16.7,24.9 16.7,39.3l0,245.7c0,13.1 -5.6,25.3 -16.7,36.4 -11.1,11.1 -23.9,16.7 -38.3,16.7L121.9,678c-13.1,0 -25.2,-5.6 -36.4,-16.7 -11.1,-11.1 -16.7,-23.3 -16.7,-36.4L68.8,379.2c0,-14.4 5.6,-27.5 16.7,-39.3 11.1,-11.8 23.3,-17.7 36.4,-17.7L835.5,322.2zM121.9,363.5c-6.6,0 -10.5,0.7 -11.8,2 -1.3,1.3 -2,5.9 -2,13.8l0,245.7c0,6.6 0.7,12.5 2,17.7 1.3,5.2 5.2,7.9 11.8,7.9l713.6,0c6.6,0 10.2,-2.6 10.8,-7.9 0.7,-5.2 1,-11.1 1,-17.7L847.2,379.2c0,-7.9 -0.3,-12.5 -1,-13.8 -0.7,-1.3 -4.3,-2 -10.8,-2L121.9,363.5zM902.3,434.2c22.3,0 37,5.9 44.2,17.7 7.2,11.8 10.8,28.2 10.8,49.1 0,21 -3.6,37.7 -10.8,50.1 -7.2,12.5 -21.9,18.7 -44.2,18.7L902.3,434.2z"/>
    />
</svg>
