<?xml version="1.0" encoding="utf-8"?>
<svg xmlns="http://www.w3.org/2000/svg"
     width="24dp"
     height="24dp"
     viewBox="0 0 1024 1024">
    <path fill="#BFBFBF"
          d="M550,981.3a46.3,46.3 0,0 1,-47.4 -46.9V89.6c0,-26.6 20.5,-46.9 47.4,-46.9s47.4,20.3 47.4,46.9v844.8a47.4,47.4 0,0 1,-47.4 46.9z"/>

    <path fill="#BFBFBF"
          d="M260.7,845.2a45.7,45.7 0,0 1,-33.2 -14.1c-17.4,-17.3 -17.4,-47 0,-65.7l470.9,-466.2 -181.8,-178.4c-18.9,-17.2 -18.9,-46.9 0,-65.7 17.4,-18.8 47.4,-18.8 66.4,0l214.9,212.8a44.8,44.8 0,0 1,14.2 32.8,44.8 44.8,0 0,1 -14.2,32.8l-504.1,499.1a54.7,54.7 0,0 1,-33.2 12.5z"/>
    <path fill="#BFBFBF"
          d="M550,981.3a45.7,45.7 0,0 1,-33.2 -14.1,47.9 47.9,0 0,1 0,-65.7l181.8,-179.9 -470.9,-464.6c-17.4,-17.3 -17.4,-47 0,-65.7 17.3,-18.8 47.4,-17.2 66.4,0l505.6,500.6a44.8,44.8 0,0 1,14.3 32.8,44.8 44.8,0 0,1 -14.2,32.9l-218.1,211.2c-7.9,9.3 -20.5,12.5 -31.6,12.5z"/>
</svg>
