<?xml version="1.0" encoding="utf-8"?>
<svg xmlns="http://www.w3.org/2000/svg"
     width="24dp"
     height="24dp"
     viewBox="0 0 1024 1024">
    <path fill="#BFBFBF"
     d = "M419.45997115 497.99126547l174.1699129-177.33376298a26.52360441 26.52360441 0 0 0-2.47834852-39.70631005L394.09644447 122.91691141a29.58199216 29.58199216 0 0 0-40.39181162 3.42750316 26.62906673 26.62906673 0 0 0-6.64408399 17.50663421v285.53741447L192.0319256 282.48038631a29.58199216 29.58199216 0 0 0-40.49727316-0.52730847 26.47087363 26.47087363 0 0 0 0.15819232 39.33719467L339.57277177 499.36226702 151.00734397 691.4606603a26.52360441 26.52360441 0 0 0 2.74200237 38.59896389c11.28439639 9.49154867 28.3164529 8.96424019 39.02081081-1.16007849l154.29039171-157.13785638v308.47532264a28.10552904 28.10552904 0 0 0 28.7910306 27.26183595 29.37106908 29.37106908 0 0 0 20.56502121-8.43693171l197.10782183-198.47882342a26.47087363 26.47087363 0 0 0-0.63277001-38.22984772l-173.4844121-164.36197959z m-15.13374647-295.45080929l126.81763266 101.77049137-126.81763266 129.19051963V202.4877254z m0 609.09375357V560.688216l128.34682654 121.6500118-128.34682654 129.29598195z m275.0439804-457.70355655a29.52926138 29.52926138 0 0 0-39.75904161-7.48777709 26.62906673 26.62906673 0 0 0-7.85689324 37.96619389c20.30136735 28.94922292 31.11118681 63.01333517 31.00572527 97.81567897a169.42413894 169.42413894 0 0 1-30.9529945 97.76294821 26.62906673 26.62906673 0 0 0 8.96424019 37.7552708 29.52926138 29.52926138 0 0 0 38.54623311-7.276854 222.52407929 222.52407929 0 0 0 0-256.53546078z m171.4806413-13.12997567a372.12142782 372.12142782 0 0 0-36.80611617-65.80806829 29.47653063 29.47653063 0 0 0-39.7590416-7.54050862 26.62906673 26.62906673 0 0 0-7.85689247 37.96619386 314.27571353 314.27571353 0 0 1 57.42386813 180.97218998 314.96121431 314.96121431 0 0 1-57.42386813 181.02491995 26.68179748 26.68179748 0 0 0 9.22789404 37.70253925 29.52926138 29.52926138 0 0 0 38.38804003-7.22412245A367.00653848 367.00653848 0 0 0 881.11833932 486.44321521c0-50.35793722-10.17704945-99.34487363-30.26749295-145.64253768z"
    />
</svg>
