<?xml version="1.0" encoding="utf-8"?>
<svg xmlns="http://www.w3.org/2000/svg"
     width="24dp"
     height="24dp"
     viewBox="0 0 1024 1024">
    <path fill="#BFBFBF"
          d="M531.681921 511.84148788l250.91285993-250.91285991c5.42973518-5.43043042 5.42973518-14.23410988 0-19.66384507-5.43043042-5.43043042-14.2348051-5.43043042-19.6645403 0L512.01807595 492.17694759 261.12607288 241.28633499c-5.43043042-5.43043042-14.23410988-5.43043042-19.66384505 0s-5.43043042 14.23410988 0 19.66384506l250.8906126 250.8906126L241.48308467 762.71193886c-5.43043042 5.43043042-5.43043042 14.2348051 0 19.66454029 2.7148676 2.7148676 6.27304745 4.07195377 9.83192254 4.07195378s7.11705494-1.35708618 9.83192253-4.07195378l250.87114621-250.8711462 250.89269828 250.89269828c2.7148676 2.7148676 6.27374268 4.07195377 9.83261776 4.07195378s7.11705494-1.35708618 9.83261776-4.07195378c5.42973518-5.43043042 5.42973518-14.2348051 0-19.66454028L531.681921 511.84148788z" />
    />
</svg>
