<svg xmlns="http://www.w3.org/2000/svg"
     width="200dp"
     height="200dp"
     viewBox="0 0 1024 1024">
    <path
            fill="#BFBFBF"
            d="M113.777778 512a398.222222 398.222222 0 1 0 398.222222-398.222222 398.222222 398.222222 0 0 0-398.222222 398.222222z" />

    <path
            fill="#FFFFFF"
            d="M722.656076 310.78775a29.19001 29.19001 0 0 1 0 40.260525l-362.028417 362.028417a28.467037 28.467037 0 0 1-40.260525-40.260524l362.209161-362.028418a29.19001 29.19001 0 0 1 40.079781 0z" />

    <path
            fill="#FFFFFF"
            d="M320.321949 310.742565a29.19001 29.19001 0 0 1 40.260524 0l362.028417 362.028417a28.467037 28.467037 0 0 1-40.260524 40.260524L320.321949 351.003089a29.19001 29.19001 0 0 1 0-40.260524z" />



</svg>