<svg xmlns="http://www.w3.org/2000/svg"
     width="200dp"
     height="200dp"
     viewBox="0 0 1024 1024">
    <path
            fill="#BFBFBF"
            d="M511.99 1005.12c-271.902 0-493.11-221.218-493.11-493.12S240.088 18.88 511.99 18.88 1005.12 240.088 1005.12 512s-221.249 493.12-493.13 493.12z m0-936.958C267.256 68.162 68.152 267.267 68.152 512S267.267 955.838 511.99 955.838 955.787 756.733 955.787 512 756.733 68.162 511.99 68.162z" />

    <path
            fill="#BFBFBF"
            d="M686.044 710.705a24.56 24.56 0 0 1-17.448-7.224l-156.77-156.77L355.363 703.44a24.63 24.63 0 1 1-34.793-34.793l156.7-156.77-156.74-156.483a24.651 24.651 0 1 1 34.864-34.864l156.739 156.74 156.463-156.74a24.63 24.63 0 1 1 34.793 34.792L546.7 512.102l156.76 156.494a24.662 24.662 0 0 1-17.396 42.11z" />


</svg>