<?xml version="1.0" encoding="utf-8"?>
<svg xmlns="http://www.w3.org/2000/svg"
     width="24dp" height="24dp" viewBox="0 0 1024 1024">
    <path  fill="#BFBFBF"
            d="M512.338944 738.286592c165.547008 0 390.09792-169.18016 405.70368-215.688192-6.089728-50.951168-217.427968-235.211776-405.70368-235.211776-179.0976 0-405.809152 146.766848-405.830656 236.33408C111.219712 567.846912 328.777728 738.286592 512.338944 738.286592M512.338944 783.398912C324.273152 783.398912 61.44 606.398464 61.44 524.1088c0-130.400256 264.404992-281.83552 450.898944-281.83552 204.079104 0 450.905088 198.331392 450.905088 281.83552C963.244032 593.593344 693.465088 783.398912 512.338944 783.398912z"/>

    <path fill="#BFBFBF"
            d="M512.338944 625.5616c62.134272 0 112.729088-50.593792 112.729088-112.729088 0-62.1312-50.594816-112.72192-112.729088-112.72192-62.133248 0-112.723968 50.59072-112.723968 112.72192C399.614976 574.967808 450.205696 625.5616 512.338944 625.5616z"/>
</svg>