<?xml version="1.0" encoding="utf-8"?>
<svg xmlns="http://www.w3.org/2000/svg"
     width="24dp"
     height="24dp"
     viewBox="0 0 1024 1024">
    <path fill="#BFBFBF"
          d="M796.585984 723.447808q30.283776-1.4210854715202004e-14 51.71097600000002 21.427199999999985t21.42720000000002 51.710976q1.5987211554602254e-14 29.712384-21.712895999999972 51.42528t-51.42527999999997 21.712896000000022q-30.283776 1.4210854715202004e-14-51.71097600000002-21.427199999999985t-21.42720000000002-51.710976 21.427199999999985-51.71097600000002 51.710976-21.42720000000002z m117.70675199999984-284.553216q30.283776-1.4210854715202004e-14 51.71097600000002 21.427199999999985t21.42720000000002 51.710976-21.427199999999985 51.71097600000002-51.710976 21.42720000000002-51.71097600000002-21.427199999999985-21.42720000000002-51.710976 21.427199999999985-51.71097600000002 51.710976-21.42720000000002z m-402.2599679999997 402.2599680000002q30.283776-1.4210854715202004e-14 51.71097600000002 21.427199999999985t21.42720000000002 51.710976-21.427199999999985 51.71097600000002-51.710976 21.42720000000002-51.71097600000002-21.427199999999985-21.42720000000002-51.710976 21.427199999999985-51.71097600000002 51.710976-21.42720000000002z m284.5532159999998-686.8131839999999q29.712384-1.5987211554602254e-14 51.42528 21.712895999999972t21.712896000000022 51.42527999999997q1.4210854715202004e-14 30.283776-21.427199999999985 51.71097600000002t-51.710976 21.42720000000002-51.71097600000002-21.427199999999985-21.42720000000002-51.710976 21.427199999999985-51.71097600000002 51.710976-21.42720000000002z m-569.1064319999996 550.8218880000003q37.711872-1.4210854715202004e-14 64.567296 26.85542399999996t26.85542400000003 64.56729599999997-26.85542399999996 64.567296-64.56729599999997 26.85542400000003-64.567296-26.85542399999996-26.85542400000003-64.56729599999997 26.85542399999996-64.567296 64.56729599999997-26.85542400000003z m284.553216-668.52864q30.283776-1.4210854715202004e-14 51.71097600000002 21.427199999999985t21.42720000000002 51.710976-21.427199999999985 51.71097600000002-51.710976 21.42720000000002-51.71097600000002-21.427199999999985-21.42720000000002-51.710976 21.427199999999985-51.71097600000002 51.710976-21.42720000000002z m-402.25996799999984 365.69088000000016q45.71136-2.842170943040401e-14 77.709312 31.99795199999997t31.99795200000003 77.70931199999995-31.99795199999997 77.709312-77.70931199999995 31.99795200000003-77.709312-31.99795199999997-31.99795200000003-77.70931199999995 31.99795199999997-77.709312 77.70931199999995-31.99795200000003z m117.70675199999972-302.83776q53.13945600000001-2.4868995751603507e-14 90.565632 37.711872t37.426176000000055 90.27993599999998q2.4868995751603507e-14 53.13945600000001-37.426176 90.565632t-90.56563199999998 37.42617600000004q-52.56806399999999 2.842170943040401e-14-90.279936-37.42617599999994t-37.711872-90.565632q-2.842170943040401e-14-52.56806399999999 37.71187199999994-90.279936t90.27993599999996-37.71187200000006z"/>
</svg>
