<?xml version="1.0" encoding="utf-8"?>
<svg xmlns="http://www.w3.org/2000/svg"
     width="24dp"
     height="24dp"
     viewBox="0 0 1024 1024">
    <path fill="#BFBFBF"
          d="M512 891.02832031c-3.5533905 0-7.02953339-0.92697143-10.04219055-2.70366669l-251.4410019-145.22552489c-9.57870484-5.56182862-12.90035248-17.84420014-7.33852386-27.42290498 3.5533905-6.17980958 10.27393342-10.04219055 17.38071442-10.04219055 3.47614289 0 6.95228576 0.92697143 10.04219056 2.70366669L512 847.76965332l249.43256378-144.06681061c3.01265717-1.77669526 6.48880005-2.70366669 10.04219054-2.70366669 7.18402863 0 13.82732392 3.86238098 17.38071443 10.04219056 5.56182862 9.57870484 2.24018097 21.86107636-7.33852387 27.42290497l-259.47475433 149.86038207c-3.16715241 1.77669526-6.64329529 2.70366669-10.04219055 2.70366669z m0-218.45626831c-3.39889526 0-6.87503815-0.92697143-10.04219055-2.70366669L343.36844635 578.32995606c-6.17980958-3.5533905-10.04219055-10.19668579-10.04219054-17.38071443v-183.0768585c0-7.18402863 3.86238098-13.82732392 10.04219055-17.38071443L501.95780945 268.95323944c3.01265717-1.69944763 6.48880005-2.62641907 10.04219055-2.62641907 3.47614289 0 6.95228576 0.92697143 10.04219055 2.62641908l158.5893631 91.53842925c6.17980958 3.5533905 10.04219055 10.19668579 10.04219054 17.38071442v183.15410614c0 7.18402863-3.86238098 13.82732392-10.04219055 17.38071442L522.04219055 670.02288056c-3.01265717 1.69944763-6.48880005 2.54917146-10.04219055 2.54917144zM373.495018 389.45952606v159.97982025L512 629.39063263l138.504982-79.95128632V389.45952606L512 309.50823974 373.495018 389.45952606zM164.30846405 581.96059418c-11.04640961 0-20.0843811-8.96072388-20.0843811-20.08438111V268.64424896c0-7.18402863 3.86238098-13.82732392 10.04219055-17.38071441L411.6553421 102.716362C414.66799927 100.93966675 418.14414215 100.01269531 421.62028503 100.01269531c7.18402863 0 13.82732392 3.86238098 17.38071443 10.04219055 2.70366669 4.63485718 3.39889526 10.04219055 2.00843809 15.21778107-1.39045716 5.17559052-4.7121048 9.50145722-9.34696197 12.2051239L184.31559753 280.2313919v281.56757355c0 11.12365723-8.96072388 20.16162873-20.00713348 20.16162873z m695.3830719-3.39889527c-11.04640961 0-20.0843811-9.0379715-20.08438111-20.0843811V280.2313919l-239.46762084-138.19599151c-9.57870484-5.56182862-12.90035248-17.84420014-7.33852387-27.42290497 3.5533905-6.17980958 10.27393342-10.04219055 17.38071442-10.04219055 3.47614289 0 6.95228576 0.92697143 10.04219055 2.70366669l249.5098114 144.06681061c6.17980958 3.5533905 10.04219055 10.19668579 10.04219055 17.38071441v289.75582124c0 11.12365723-8.96072388 20.0843811-20.0843811 20.08438109z" />
</svg>
