<?xml version="1.0" encoding="utf-8"?>
<svg xmlns="http://www.w3.org/2000/svg"
     width="24dp"
     height="24dp"
     viewBox="0 0 1024 1024">
    <path fill="#BFBFBF"
          d="M325.7103125 699.56413195h194.5565625v29.9325H325.709375V699.56319446z m0-299.3165625h359.180625v29.9315625H325.7103125V400.24756945z m0-134.6925h359.180625v29.9315625H325.7103125v-29.9315625z m0 284.35124998h194.5565625v29.93156252H325.709375v-29.93156252zM205.9840625 811.80819445V198.20881945c0-20.63718749 16.7775-37.415625 37.41468751-37.415625h553.73624999c20.63624999 0 37.4146875 16.7784375 37.4146875 37.415625v187.0725h44.896875V198.20881945c0-45.3796875-36.9328125-82.3125-82.3115625-82.3125H243.39875001c-45.3815625 0-82.3125 36.9328125-82.3125 82.3125v613.599375c0 45.3796875 36.9309375 82.3125 82.3125 82.3125h187.07249998v-44.896875H243.39875001c-20.63718749 0-37.415625-16.7784375-37.41562501-37.415625z m739.80749999-290.840625l-37.45968749-37.47187501-37.4578125-37.4446875c-6.8971875-6.898125-18.07874999-6.898125-24.9759375 0L536.8025 755.14663195a13.19624999 13.19624999 0 0 0-4.303125 6.4434375l-34.2075 113.8078125a13.275 13.275 0 0 0 3.3178125 13.1990625l0.928125 0.7153125 0.721875 0.920625a13.288125 13.288125 0 0 0 13.18312501 3.331875l113.80781249-34.213125a13.17374999 13.17374999 0 0 0 6.504375-4.3846875L945.790625 545.93038195c6.8925-6.883125 6.8925-18.0778125 0.00093749-24.96187501zM619.28374999 834.98788195l-89.24718749 26.8340625 26.8340625-89.2828125 239.08125-239.0878125 62.4346875 62.4365625-239.10281249 239.1zM914.57375001 539.69131945L870.875 583.38819445l-62.428125-62.4365625 43.6921875-43.68375c3.448125-3.45 9.039375-3.45 12.4875-0.015l25.21125 25.21125 24.73593751 24.7434375c3.4490625 3.45 3.4490625 9.046875 0 12.4828125z" />
</svg>
