<?xml version="1.0" encoding="utf-8"?>
<svg xmlns="http://www.w3.org/2000/svg"
     width="24dp"
     height="24dp"
     viewBox="0 0 1024 1024">
    <path fill="#BFBFBF"
          d="M511.995907 649.75300301c-79.845513 0-144.797827-64.789609-144.797827-144.444786s64.952314-144.44581 144.797827-144.44581c79.846536 0 144.807037 64.791655 144.807037 144.44581S591.843466 649.75300301 511.995907 649.75300301zM511.995907 389.49758501c-64.012919 0-116.093065 51.956326-116.093065 115.810632 0 63.854307 52.080146 115.811656 116.093065 115.811656 64.022129 0 116.100228-51.957349 116.100228-115.811656C628.096135 441.45391001 576.018036 389.49758501 511.995907 389.49758501z" >
    </path>

    <path fill="#BFBFBF"
          d="M631.761618 893.19243201c-5.01727 0-9.810437-2.62785-12.432147-7.160073l-46.780443-80.827887c-39.898709 7.982812-81.527828 7.856945-121.756041-0.322341l-46.829562 80.912821c-3.393283 5.845125-10.42135 8.500605-16.82827 6.473435-56.023968-17.980513-106.400309-47.090505-149.733233-86.532819-4.982478-4.530177-6.132674-11.899004-2.76088-17.729803l46.942125-81.081667c-13.608949-15.435551-25.412786-31.723515-35.161824-48.573275-9.986445-17.252943-18.389836-36.071543-25.039279-56.066947l-93.694939 0c-6.763031 0-12.609179-4.710278-14.031575-11.295254-12.369725-57.228399-12.242835-115.294886 0.37146-172.620499 1.443885-6.557346 7.27366-11.239995 14.015202-11.239995l93.863784 0c13.035898-38.311561 33.605376-73.874521 60.096726-103.914698l-46.795792-80.842213c-3.37691-5.836939-2.213411-13.234419 2.790556-17.762549 21.585621-19.524682 45.231157-36.744879 70.272483-51.166333 25.018813-14.407128 51.78441-26.222221 79.55694-35.122939 6.441713-2.055822 13.443174 0.62831 16.821107 6.473435l46.780443 80.83505c39.372729-7.898901 80.456427-7.878434 120.270201 0.042979l46.927799-81.08883c3.371794-5.829775 10.350742-8.535397 16.777105-6.486738 56.05262 17.764596 106.533338 46.691415 150.041248 85.987397 5.01113 4.52813 6.175653 11.92561 2.796696 17.769712l-46.857191 80.947614c14.051017 15.751752 26.190499 32.425504 36.169781 49.671283 9.754155 16.86204 18.011212 35.207873 24.583908 54.655807l93.868901 0c6.741541 0 12.573363 4.682649 14.016225 11.253298 12.580526 57.158814 12.663414 115.238604 0.25378 172.60822-1.430582 6.584975-7.269567 11.295254-14.031575 11.295254l-93.66731 0c-13.006222 38.82833-33.750685 74.888618-60.600193 105.325837l46.787606 80.842213c3.37691 5.844102 2.213411 13.241582-2.789533 17.757432-21.571295 19.531845-45.218878 36.744879-70.272483 51.173496-25.006534 14.414291-51.777247 26.229384-79.56001 35.122939C634.698506 892.96730401 633.219829 893.19243201 631.761618 893.19243201zM579.725474 774.65468801c5.045923 0 9.824763 2.65548 12.43317 7.160073l46.156226 79.750345c21.928429-7.760754 43.087331-17.47807 63.031569-28.983101 19.989263-11.507078 39.009456-24.916483 56.682977-39.96113L711.86705 712.85620301c-3.174296-5.482875-2.352581-12.402471 2.012843-17.002232 29.728068-31.334659 52.000328-70.0361 64.410985-111.940488 1.802042-6.080485 7.401574-10.261715 13.764492-10.261715l92.434226 0c8.500605-45.873794 8.429996-92.152816-0.195451-137.88744L791.664467 435.76432801c-6.328126 0-11.916401-4.139274-13.743002-10.17985-6.391571-21.138436-14.887059-40.925085-25.225521-58.793034-10.538007-18.21792-23.806195-35.777855-39.413662-52.18657-4.380774-4.600785-5.201465-11.521404-2.026146-17.015535l46.240137-79.887468c-35.509748-30.193673-75.736938-53.243645-119.861902-68.677149l-46.310745 80.018451c-3.167133 5.465478-9.538237 8.205892-15.727193 6.773264-42.210357-9.907651-86.363973-9.927093-128.013559-0.028653-6.181793 1.482771-12.580526-1.279133-15.761985-6.766101l-46.156226-79.753415c-21.922289 7.760754-43.080168 17.47807-63.040778 28.969798-19.97289 11.501962-38.994106 24.923646-56.668651 39.97341l46.163389 79.753415c3.174296 5.486968 2.354628 12.402471-2.01182 17.002232-29.364795 30.957059-51.488675 69.202105-63.978127 110.602004-1.822508 6.054903-7.407714 10.194176-13.743002 10.194176l-92.622514 0c-8.66945 45.830815-8.773827 92.112907-0.306992 137.88744l92.465948 0c6.356778 0 11.957333 4.16588 13.764492 10.248412 6.434549 21.671579 15.048741 41.904389 25.593911 60.134589 10.331299 17.856693 23.260773 35.068703 38.435381 51.187823 4.329609 4.600785 5.129834 11.494799 1.969864 16.962324l-46.318932 80.016405c35.378765 30.312376 75.521021 53.509704 119.619378 69.112054l46.212508-79.849606c3.181459-5.495154 9.601682-8.235568 15.795754-6.769171 42.603307 10.250458 87.289042 10.360975 129.401162 0.349971C577.503876 774.78157801 578.626443 774.65468801 579.725474 774.65468801z" >
    </path>
</svg>