<?xml version="1.0" encoding="utf-8"?>
<svg xmlns="http://www.w3.org/2000/svg"
     width="24dp"
     height="24dp"
     viewBox="0 0 1024 1024">
    <path fill="#BFBFBF"
          d="M933.875 512C933.875 279.00469971 744.99530029 90.125 512 90.125S90.125 279.00469971 90.125 512s188.8796997 421.875 421.875 421.875c96.74285888 0 188.54681396-32.68624878 262.65673828-91.7190857 8.89068605-7.08206177 10.35653687-20.02917481 3.27529907-28.91903686-7.08123779-8.88986207-20.02917481-10.35571289-28.91903686-3.2744751C682.1260376 863.24142455 599.34295654 892.71664429 512 892.71664429 301.73651122 892.71664429 131.28335571 722.26348878 131.28335571 512S301.73651122 131.28335571 512 131.28335571 892.71664429 301.73651122 892.71664429 512c0 72.0920105-20.05059815 141.17733765-57.33050538 201.0168457-6.01007081 9.64709473-3.06188965 22.33959961 6.58520508 28.34884644 9.64627075 6.01007081 22.33795167 3.06188965 28.34884643-6.5843811C911.63922119 668.45629883 933.875 591.8414917 933.875 512z" />

    <path fill="#BFBFBF"
          d="M529.36856079 659.83670044c15.52285766 0 28.1065979 12.56973266 28.1065979 28.09094238v7.44049072c0 15.5154419-12.47497559 28.09259033-28.1065979 28.09259034-15.52368164 0-28.10742188-12.57055664-28.10742188-28.09176637v-7.44049072c0-15.5154419 12.47579956-28.09176635 28.10742188-28.09176635zM398.81390381 435.08609008s2.20413207 19.40954589 23.89361572 19.40954591 22.97241211-19.40954589 22.97241211-19.40954591c-1.43701172-62.84783935 27.68225098-92.69137573 87.29516602-89.72671508 39.67932129 4.47994995 60.23831177 26.87805177 61.61270141 67.26187133-2.74960327 17.9848938-17.80856323 41.23992919-44.61575317 69.63409425-35.49353028 35.90386963-53.23947143 68.05206299-53.23947143 96.44622801v29.11761476s2.72323609 17.36691284 22.33877563 17.36691284c19.61636352 0 22.33959961-17.36691284 22.33959961-17.36691284v-20.22445679c0-23.71646118 16.99694825-52.24163818 51.05264283-85.24676512 35.61795044-32.80737305 53.30126953-62.78192138 53.30126952-89.72671511-2.9366455-74.70565796-41.8661499-113.6401062-117.10162354-116.6706848-86.54534912-1.44937133-129.84933472 44.92886352-129.84933471 139.13552855z" />
</svg>
