<?xml version="1.0" encoding="utf-8"?>
<svg xmlns="http://www.w3.org/2000/svg"
     width="24dp"
     height="24dp"
     viewBox="0 0 1024 1024">
    <path fill="#BFBFBF"
          d="M430.79318237 905.4758911c46.11538698 36.30679321 105.4135437 37.82537842 153.90444945 4.40496828 29.62353516-20.41891479 1.56555177-69.14547729-28.35049438-48.52386475-13.56262208 9.34799195-29.1258545 16.75634766-45.7470703 17.70556642-10.5856018 0.6072693-21.45300293-3.53897094-30.75567627-8.17959596-2.62847901-1.29940797-18.89126587-12.68179321-9.31420899-5.13418579-28.12637328-22.15338135-68.18801879 17.32983398-39.73699951 39.72711183z m-21.36318969-56.43814086c73.97561646-19.04699709 147.96359253-38.09069824 221.93508911-57.13027954 35.07000732-9.03652954 20.18243408-63.22192383-14.9345398-54.18457032-73.97561646 19.04699709-147.95947266 38.09481812-221.93508912 57.12945558-35.07000732 9.02828978-20.18243408 63.21368407 14.93453981 54.18539428z m0-85.21792602c52.64538575-14.00262451 105.29571533-27.99618531 157.94110107-41.98150635 52.82666016-14.04794311 88.93157959-14.88757324 93.05227661-79.21032714 1.95776368-30.53155518 32.16384889-56.52301026 50.72634888-78.34680177 23.62088012-27.74240112 45.49987793-57.34039307 59.68212891-91.10687255 34.07958983-81.16973877 24.74395751-168.07928467-16.22488404-244.70809935C662.2039795 55.64907837 415.21759033 46.51202393 294.43939209 191.17230224 190.76525878 315.34197998 219.1734314 535.36627198 362.50463867 620.05355835c31.26159668 18.47351075 59.50991821-30.10556031 28.35049438-48.51150513-91.24694825-53.93243408-120.51699829-183.11434937-90.63967895-277.61022949 43.49926758-137.54278565 211.81008911-185.83099365 330.66925049-116.73248291 106.50942993 61.92745972 132.07077027 206.27545166 70.72668457 307.08215332-20.36370849 33.46737671-49.41046143 61.10842896-72.90856934 92.31481934-21.86581421 29.03686523-21.22393799 60.56790162-31.88946532 93.65130615l19.62130737-19.62130737c-73.97561646 19.66333008-147.95947266 39.32748413-221.93508911 58.99493407-34.98184204 9.30267334-20.12722778 63.508667 14.93041992 54.19857789z m0 0" />
</svg>
