<?xml version="1.0" encoding="utf-8"?>
<svg xmlns="http://www.w3.org/2000/svg"
     width="24dp"
     height="24dp"
     viewBox="0 0 1024 1024">
    <path fill="#BFBFBF"
          d="M512 295.65887451c-114.62393188 0-207.58062743 89.02468871-207.58062743 198.8555603 0 130.42199708 90.56881714 163.66937257 90.56881712 239.55413819 0 18.75942993 14.34375001 36.20874023 35.88574219 49.02648926-4.50549316 3.75238037-7.01861573 7.86318969-7.01861571 12.17175292 0 5.78018188 4.54174805 11.18380737 12.35137938 15.81536865-7.32513427 4.54174805-11.57931518 9.76657104-11.57931518 15.34899903 0 5.63763427 4.34399414 10.91519165 11.82980347 15.49319458-7.64730835 4.5953064-12.09924316 9.96350096-12.09924316 15.65386963 0 6.96588135 6.57037354 13.33850097 17.55725097 18.5270691-4.25500489 3.85949707-6.69644165 8.1326294-6.69644164 12.61999512 0 13.28494263 20.69824219 24.57669068 49.79937742 29.10031127 5.11688233 9.47900391 15.4923706 16.04937744 27.59243775 16.04937744 12.08193969 0 22.44012451-6.51681518 27.55618287-15.95956421 29.38787842-4.45193482 50.3201294-15.81536865 50.32012938-29.13574219 0-4.43463135-2.35162354-8.65338135-6.51681517-12.45849609 11.22006226-5.224823 17.91650391-11.68725586 17.91650391-18.70669556 0-5.63681031-4.32669068-10.93331909-11.83062745-15.49319458 7.63000489-4.61343383 12.09924316-9.94537354 12.09924316-15.6357422 0-5.78100586-4.55905151-11.18463135-12.35137939-15.83432005 7.36138916-4.5236206 11.59744263-9.76574707 11.59744262-15.34899903 0-4.47006226-2.71087646-8.68881226-7.5574951-12.53018188 21.2008667-12.79962158 35.29412842-30.0701294 35.29412841-48.6680603 0-75.92019653 90.46087646-109.14944458 90.46087646-239.55413819-0.01812746-109.86630249-92.95669555-198.89099122-207.59875488-198.89099121z m108.39468383 321.91781616c-20.68093872 30.375-44.07192993 64.69848633-45.50811766 111.87762451-7.10925292 7.91674805-32.47531127 20.7888794-62.81488038 20.7888794-30.35687255 0-55.74188231-12.87213135-62.83218384-20.82513427-1.43618774-47.19561769-24.86343383-81.52075195-45.58062744-111.87762452-23.10424805-33.8571167-44.91650391-65.83062745-44.91650391-123.04412842 0-79.68905639 68.75656128-144.53256226 153.2576294-144.53256225 84.51837157 0 153.27575684 64.84350586 153.27575683 144.53338623 0 57.23080445-21.81225586 89.22161865-44.881073 123.07955933zM512 225.91519165c14.93618774 0 27.16149902-16.15731812 27.16149902-35.9046936v-63.98162842C539.16149902 106.28314209 526.93618774 90.125 512 90.125s-27.16149902 16.15731812-27.16149902 35.90386963v63.98162842c0 19.76550293 12.22531127 35.9046936 27.16149902 35.9046936z m-139.18249511 37.30462647c12.94299317-7.46850585 15.42068482-27.57513427 5.56512451-44.66519166l-31.97268677-55.41806029c-9.87368774-17.10900878-28.54412842-24.98950195-41.48712158-17.52182008-12.94464112 7.46850585-15.43963623 27.57513427-5.58407593 44.66519165l32.00894165 55.41806031c9.87368774 17.10818482 28.52600097 24.98950195 41.46981812 17.52182007z m-119.41864015 60.40887451l-55.38180542-31.99081421c-17.10818482-9.87368774-37.21481323-7.37869263-44.68249511 5.56512451-7.46850585 12.94299317 0.39550781 31.5953064 17.5209961 41.46899414l55.40075683 31.99081422c17.10818482 9.87368774 37.21481323 7.37869263 44.66436768-5.56512452 7.45037842-12.94381714-0.41198731-31.5953064-17.52099611-41.46899414z m599.76287842 346.26049805l-55.39993285-31.97268677c-17.10818482-9.89181518-37.21481323-7.39682007-44.66436768 5.5651245-7.46850585 12.94299317 0.37655641 31.5953064 17.53912354 41.46899415l55.36450196 31.99081421c17.10818482 9.87368774 37.21398926 7.37869263 44.6824951-5.56512451 7.46768187-12.9611206-0.39550781-31.61343383-17.52099609-41.48712159zM233.63500977 504.27935791c0-14.95349122-16.15649414-27.16149902-35.90386964-27.16149903h-63.98162841c-19.74737549 0-35.90386963 12.22613526-35.90386963 27.16149903 0 14.93618774 16.15649414 27.162323 35.90386963 27.162323h63.98162841c19.74737549 0 35.90386963-12.22613526 35.90386964-27.162323z m656.61712646-27.16149903h-63.96350097c-19.76550293 0-35.90386963 12.22613526-35.90386964 27.16149903 0 14.93618774 16.1383667 27.162323 35.90386964 27.162323h63.96350097c19.76550293 0 35.90386963-12.22613526 35.90386963-27.162323 0-14.93536377-16.15649414-27.16149902-35.90386963-27.16149903zM226.23818969 637.91650391l-55.40075683 31.97268676c-17.10818482 9.87368774-24.98867798 28.52600097-17.52099609 41.48712159 7.46850585 12.94381714 27.5743103 15.42068482 44.68249512 5.56512451l55.38262939-31.99081421c17.10818482-9.87368774 24.98950195-28.52600097 17.52099609-41.46899415-7.44955445-12.92568969-27.55618286-15.45776367-44.66436768-5.5651245z m571.52362062-267.25369264l55.40075683-31.9908142c17.10818482-9.87368774 24.98867798-28.52600097 17.52099609-41.46899414-7.46850585-12.94381714-27.5743103-15.43881226-44.68249512-5.56512451l-55.38262939 31.99081421c-17.09088135 9.87368774-24.98950195 28.52600097-17.52099609 41.46899414 7.44955445 12.94381714 27.55618286 15.43881226 44.66436768 5.56512452zM719.09613037 145.59744263c-12.9611206-7.46850585-31.63238526 0.41198731-41.506073 17.52099609l-31.97268677 55.41806031c-9.87368774 17.10818482-7.37786865 37.19668579 5.56512451 44.66519165 12.9611206 7.46768187 31.61425781-0.41281129 41.48712159-17.52182008l32.00894165-55.41806029c9.85638427-17.09005737 7.34243774-37.19668579-5.58242798-44.66436768z" />

</svg>
